<?xml version="1.0" encoding="UTF-8" standalone="no"?>
<!-- Created with Inkscape (http://www.inkscape.org/) -->

<svg
   width="48"
   height="48"
   viewBox="0 0 12.7 12.7"
   version="1.1"
   id="svg1"
   inkscape:version="1.3 (0e150ed, 2023-07-21)"
   sodipodi:docname="logo.svg"
   inkscape:export-filename="logo.png"
   inkscape:export-xdpi="1024"
   inkscape:export-ydpi="1024"
   xmlns:inkscape="http://www.inkscape.org/namespaces/inkscape"
   xmlns:sodipodi="http://sodipodi.sourceforge.net/DTD/sodipodi-0.dtd"
   xmlns="http://www.w3.org/2000/svg"
   xmlns:svg="http://www.w3.org/2000/svg">
  <sodipodi:namedview
     id="namedview1"
     pagecolor="#ffffff"
     bordercolor="#666666"
     borderopacity="1.0"
     inkscape:showpageshadow="2"
     inkscape:pageopacity="0.0"
     inkscape:pagecheckerboard="0"
     inkscape:deskcolor="#d1d1d1"
     inkscape:document-units="px"
     inkscape:zoom="4.25"
     inkscape:cx="-0.82352941"
     inkscape:cy="56.235294"
     inkscape:window-width="1920"
     inkscape:window-height="1016"
     inkscape:window-x="0"
     inkscape:window-y="27"
     inkscape:window-maximized="1"
     inkscape:current-layer="layer1" />
  <defs
     id="defs1" />
  <g
     inkscape:label="Layer 1"
     inkscape:groupmode="layer"
     id="layer1">
    <g
       id="g23"
       transform="rotate(90,5.3201447,7.8715845)">
      <path
         style="fill:#000000;fill-opacity:1;stroke:none;stroke-width:0.3838;stroke-linecap:round;stroke-linejoin:round;stroke-dasharray:3.07041, 3.07041;paint-order:stroke fill markers"
         id="path1"
         sodipodi:type="arc"
         sodipodi:cx="4.5544605"
         sodipodi:cy="3.3996274"
         sodipodi:rx="0.31509063"
         sodipodi:ry="0.31509063"
         sodipodi:start="4.7994363"
         sodipodi:end="4.7944724"
         sodipodi:open="true"
         sodipodi:arc-type="arc"
         d="M 4.5818537,3.0857298 A 0.31509063,0.31509063 0 0 1 4.8683919,3.4266311 0.31509063,0.31509063 0 0 1 4.5278465,3.7135921 0.31509063,0.31509063 0 0 1 4.2404631,3.3734031 0.31509063,0.31509063 0 0 1 4.5802952,3.0855977" />
      <path
         style="fill:#000000;fill-opacity:1;stroke:none;stroke-width:0.3838;stroke-linecap:round;stroke-linejoin:round;stroke-dasharray:3.07041, 3.07041;paint-order:stroke fill markers"
         id="path2"
         sodipodi:type="arc"
         sodipodi:cx="4.5544605"
         sodipodi:cy="4.3830848"
         sodipodi:rx="0.31509063"
         sodipodi:ry="0.31509063"
         sodipodi:start="4.7994363"
         sodipodi:end="4.7944724"
         sodipodi:open="true"
         sodipodi:arc-type="arc"
         d="M 4.5818537,4.0691872 A 0.31509063,0.31509063 0 0 1 4.8683919,4.4100884 0.31509063,0.31509063 0 0 1 4.5278465,4.6970494 0.31509063,0.31509063 0 0 1 4.2404631,4.3568604 0.31509063,0.31509063 0 0 1 4.5802952,4.069055" />
      <path
         style="fill:#000000;fill-opacity:1;stroke:none;stroke-width:0.3838;stroke-linecap:round;stroke-linejoin:round;stroke-dasharray:3.07041, 3.07041;paint-order:stroke fill markers"
         id="path3"
         sodipodi:type="arc"
         sodipodi:cx="4.5544605"
         sodipodi:cy="5.3665423"
         sodipodi:rx="0.31509063"
         sodipodi:ry="0.31509063"
         sodipodi:start="4.7994363"
         sodipodi:end="4.7944724"
         sodipodi:open="true"
         sodipodi:arc-type="arc"
         d="M 4.5818537,5.0526447 A 0.31509063,0.31509063 0 0 1 4.8683919,5.3935459 0.31509063,0.31509063 0 0 1 4.5278465,5.680507 0.31509063,0.31509063 0 0 1 4.2404631,5.340318 0.31509063,0.31509063 0 0 1 4.5802952,5.0525126" />
      <path
         style="fill:#000000;fill-opacity:1;stroke:none;stroke-width:0.3838;stroke-linecap:round;stroke-linejoin:round;stroke-dasharray:3.07041, 3.07041;paint-order:stroke fill markers"
         id="path4"
         sodipodi:type="arc"
         sodipodi:cx="4.5544605"
         sodipodi:cy="6.3499999"
         sodipodi:rx="0.31509063"
         sodipodi:ry="0.31509063"
         sodipodi:start="4.7994363"
         sodipodi:end="4.7944724"
         sodipodi:open="true"
         sodipodi:arc-type="arc"
         d="M 4.5818537,6.0361023 A 0.31509063,0.31509063 0 0 1 4.8683919,6.3770035 0.31509063,0.31509063 0 0 1 4.5278465,6.6639645 0.31509063,0.31509063 0 0 1 4.2404631,6.3237755 0.31509063,0.31509063 0 0 1 4.5802952,6.0359702" />
      <path
         style="fill:#000000;fill-opacity:1;stroke:none;stroke-width:0.3838;stroke-linecap:round;stroke-linejoin:round;stroke-dasharray:3.07041, 3.07041;paint-order:stroke fill markers"
         id="path5"
         sodipodi:type="arc"
         sodipodi:cx="4.5544605"
         sodipodi:cy="7.3334575"
         sodipodi:rx="0.31509063"
         sodipodi:ry="0.31509063"
         sodipodi:start="4.7994363"
         sodipodi:end="4.7944724"
         sodipodi:open="true"
         sodipodi:arc-type="arc"
         d="M 4.5818537,7.0195598 A 0.31509063,0.31509063 0 0 1 4.8683919,7.3604611 0.31509063,0.31509063 0 0 1 4.5278465,7.6474221 0.31509063,0.31509063 0 0 1 4.2404631,7.3072331 0.31509063,0.31509063 0 0 1 4.5802952,7.0194277" />
      <path
         style="fill:#000000;fill-opacity:1;stroke:none;stroke-width:0.3838;stroke-linecap:round;stroke-linejoin:round;stroke-dasharray:3.07041, 3.07041;paint-order:stroke fill markers"
         id="path6"
         sodipodi:type="arc"
         sodipodi:cx="4.5544605"
         sodipodi:cy="8.3169155"
         sodipodi:rx="0.31509063"
         sodipodi:ry="0.31509063"
         sodipodi:start="4.7994363"
         sodipodi:end="4.7944724"
         sodipodi:open="true"
         sodipodi:arc-type="arc"
         d="M 4.5818537,8.0030179 A 0.31509063,0.31509063 0 0 1 4.8683919,8.3439191 0.31509063,0.31509063 0 0 1 4.5278465,8.6308802 0.31509063,0.31509063 0 0 1 4.2404631,8.2906911 0.31509063,0.31509063 0 0 1 4.5802952,8.0028858" />
      <path
         style="fill:#000000;fill-opacity:1;stroke:none;stroke-width:0.3838;stroke-linecap:round;stroke-linejoin:round;stroke-dasharray:3.07041, 3.07041;paint-order:stroke fill markers"
         id="path7"
         sodipodi:type="arc"
         sodipodi:cx="4.5544605"
         sodipodi:cy="9.3003731"
         sodipodi:rx="0.31509063"
         sodipodi:ry="0.31509063"
         sodipodi:start="4.7994363"
         sodipodi:end="4.7944724"
         sodipodi:open="true"
         sodipodi:arc-type="arc"
         d="M 4.5818537,8.9864755 A 0.31509063,0.31509063 0 0 1 4.8683919,9.3273767 0.31509063,0.31509063 0 0 1 4.5278465,9.6143377 0.31509063,0.31509063 0 0 1 4.2404631,9.2741487 0.31509063,0.31509063 0 0 1 4.5802952,8.9863433" />
      <path
         style="fill:#000000;fill-opacity:1;stroke:none;stroke-width:0.3838;stroke-linecap:round;stroke-linejoin:round;stroke-dasharray:3.07041, 3.07041;paint-order:stroke fill markers"
         id="path8"
         sodipodi:type="arc"
         sodipodi:cx="4.5544605"
         sodipodi:cy="10.283831"
         sodipodi:rx="0.31509063"
         sodipodi:ry="0.31509063"
         sodipodi:start="4.7994363"
         sodipodi:end="4.7944724"
         sodipodi:open="true"
         sodipodi:arc-type="arc"
         d="M 4.5818537,9.969933 A 0.31509063,0.31509063 0 0 1 4.8683919,10.310834 0.31509063,0.31509063 0 0 1 4.5278465,10.597795 0.31509063,0.31509063 0 0 1 4.2404631,10.257606 0.31509063,0.31509063 0 0 1 4.5802952,9.9698009" />
      <path
         style="fill:#000000;fill-opacity:1;stroke:none;stroke-width:0.3838;stroke-linecap:round;stroke-linejoin:round;stroke-dasharray:3.07041, 3.07041;paint-order:stroke fill markers"
         id="path9"
         sodipodi:type="arc"
         sodipodi:cx="2.2025685"
         sodipodi:cy="4.3830848"
         sodipodi:rx="0.31509063"
         sodipodi:ry="0.31509063"
         sodipodi:start="4.7994363"
         sodipodi:end="4.7944724"
         sodipodi:open="true"
         sodipodi:arc-type="arc"
         d="M 2.2299617,4.0691872 A 0.31509063,0.31509063 0 0 1 2.5164999,4.4100884 0.31509063,0.31509063 0 0 1 2.1759545,4.6970494 0.31509063,0.31509063 0 0 1 1.8885711,4.3568604 0.31509063,0.31509063 0 0 1 2.2284032,4.069055" />
      <path
         style="fill:#000000;fill-opacity:1;stroke:none;stroke-width:0.3838;stroke-linecap:round;stroke-linejoin:round;stroke-dasharray:3.07041, 3.07041;paint-order:stroke fill markers"
         id="path10"
         sodipodi:type="arc"
         sodipodi:cx="2.2025685"
         sodipodi:cy="5.3665423"
         sodipodi:rx="0.31509063"
         sodipodi:ry="0.31509063"
         sodipodi:start="4.7994363"
         sodipodi:end="4.7944724"
         sodipodi:open="true"
         sodipodi:arc-type="arc"
         d="M 2.2299617,5.0526447 A 0.31509063,0.31509063 0 0 1 2.5164999,5.3935459 0.31509063,0.31509063 0 0 1 2.1759545,5.680507 0.31509063,0.31509063 0 0 1 1.8885711,5.340318 0.31509063,0.31509063 0 0 1 2.2284032,5.0525126" />
      <path
         style="fill:#000000;fill-opacity:1;stroke:none;stroke-width:0.3838;stroke-linecap:round;stroke-linejoin:round;stroke-dasharray:3.07041, 3.07041;paint-order:stroke fill markers"
         id="path11"
         sodipodi:type="arc"
         sodipodi:cx="2.2025685"
         sodipodi:cy="6.3499999"
         sodipodi:rx="0.31509063"
         sodipodi:ry="0.31509063"
         sodipodi:start="4.7994363"
         sodipodi:end="4.7944724"
         sodipodi:open="true"
         sodipodi:arc-type="arc"
         d="M 2.2299617,6.0361023 A 0.31509063,0.31509063 0 0 1 2.5164999,6.3770035 0.31509063,0.31509063 0 0 1 2.1759545,6.6639645 0.31509063,0.31509063 0 0 1 1.8885711,6.3237755 0.31509063,0.31509063 0 0 1 2.2284032,6.0359702" />
      <path
         style="fill:#000000;fill-opacity:1;stroke:none;stroke-width:0.3838;stroke-linecap:round;stroke-linejoin:round;stroke-dasharray:3.07041, 3.07041;paint-order:stroke fill markers"
         id="path12"
         sodipodi:type="arc"
         sodipodi:cx="2.2025685"
         sodipodi:cy="7.3334575"
         sodipodi:rx="0.31509063"
         sodipodi:ry="0.31509063"
         sodipodi:start="4.7994363"
         sodipodi:end="4.7944724"
         sodipodi:open="true"
         sodipodi:arc-type="arc"
         d="M 2.2299617,7.0195598 A 0.31509063,0.31509063 0 0 1 2.5164999,7.3604611 0.31509063,0.31509063 0 0 1 2.1759545,7.6474221 0.31509063,0.31509063 0 0 1 1.8885711,7.3072331 0.31509063,0.31509063 0 0 1 2.2284032,7.0194277" />
      <path
         style="fill:#000000;fill-opacity:1;stroke:none;stroke-width:0.3838;stroke-linecap:round;stroke-linejoin:round;stroke-dasharray:3.07041, 3.07041;paint-order:stroke fill markers"
         id="path13"
         sodipodi:type="arc"
         sodipodi:cx="2.2025685"
         sodipodi:cy="8.3169155"
         sodipodi:rx="0.31509063"
         sodipodi:ry="0.31509063"
         sodipodi:start="4.7994363"
         sodipodi:end="4.7944724"
         sodipodi:open="true"
         sodipodi:arc-type="arc"
         d="M 2.2299617,8.0030179 A 0.31509063,0.31509063 0 0 1 2.5164999,8.3439191 0.31509063,0.31509063 0 0 1 2.1759545,8.6308802 0.31509063,0.31509063 0 0 1 1.8885711,8.2906911 0.31509063,0.31509063 0 0 1 2.2284032,8.0028858" />
      <path
         style="fill:#000000;fill-opacity:1;stroke:none;stroke-width:0.3838;stroke-linecap:round;stroke-linejoin:round;stroke-dasharray:3.07041, 3.07041;paint-order:stroke fill markers"
         id="path14"
         sodipodi:type="arc"
         sodipodi:cx="2.2025685"
         sodipodi:cy="9.3003731"
         sodipodi:rx="0.31509063"
         sodipodi:ry="0.31509063"
         sodipodi:start="4.7994363"
         sodipodi:end="4.7944724"
         sodipodi:open="true"
         sodipodi:arc-type="arc"
         d="M 2.2299617,8.9864755 A 0.31509063,0.31509063 0 0 1 2.5164999,9.3273767 0.31509063,0.31509063 0 0 1 2.1759545,9.6143377 0.31509063,0.31509063 0 0 1 1.8885711,9.2741487 0.31509063,0.31509063 0 0 1 2.2284032,8.9863433" />
      <path
         style="fill:none;stroke:#000000;stroke-width:0.0529167;stroke-linecap:butt;stroke-linejoin:miter;stroke-dasharray:none;stroke-opacity:1"
         d="M 2.5176592,4.3830847 4.2393699,3.3996274 2.5176592,5.3665423 4.2393699,4.3830847 2.5176592,6.3499999 4.2393699,5.3665423 2.5176592,7.3334575 4.2393699,6.3499999 2.5176592,8.3169156 4.2393699,7.3334575 2.5176592,9.3003732 4.2393699,8.3169156 2.5176592,4.3830847 4.2393699,9.3003732 2.5176592,5.3665423 4.2393699,10.283831 2.5176592,6.3499999 4.2393699,3.3996274 2.5176592,7.3334575 4.2393699,4.3830847 2.5176592,8.3169156 4.2393699,5.3665423 2.5176592,9.3003732 4.2393699,6.3499999 2.5176592,4.3830847 4.2393699,7.3334575 2.5176592,5.3665423 4.2393699,8.3169156 2.5176592,6.3499999 4.2393699,9.3003732 2.5176592,7.3334575 4.2393699,10.283831 2.5176592,8.3169156 4.2393699,3.3996274 2.5176592,9.3003732 4.2393699,4.3830847 H 2.5176592 L 4.2393699,5.3665423 H 2.5176592 L 4.2393699,6.3499999 H 2.5176592 L 4.2393699,7.3334575 H 2.5176592 L 4.2393699,8.3169156 H 2.5176592 L 4.2393699,9.3003732 H 2.5176592 l 1.7217107,0.9834578 z"
         id="path20" />
    </g>
    <g
       id="g30"
       transform="translate(0.32156004,0.4937014)">
      <rect
         style="fill:none;fill-opacity:1;stroke:#000000;stroke-width:0.132292;stroke-linecap:round;stroke-linejoin:round;stroke-dasharray:none;stroke-opacity:1;paint-order:stroke fill markers"
         id="rect20"
         width="1.5070738"
         height="0.62014145"
         x="4.0268154"
         y="1.3492998"
         ry="0.11940673" />
      <rect
         style="fill:none;fill-opacity:1;stroke:#000000;stroke-width:0.132292;stroke-linecap:round;stroke-linejoin:round;stroke-dasharray:none;stroke-opacity:1;paint-order:stroke fill markers"
         id="rect21"
         width="1.5070738"
         height="0.62014145"
         x="6.6367755"
         y="0.76557589"
         ry="0.11940673" />
      <rect
         style="fill:none;fill-opacity:1;stroke:#000000;stroke-width:0.132292;stroke-linecap:round;stroke-linejoin:round;stroke-dasharray:none;stroke-opacity:1;paint-order:stroke fill markers"
         id="rect22"
         width="1.5070738"
         height="0.62014145"
         x="3.7363923"
         y="2.3806806"
         ry="0.11940673" />
      <rect
         style="fill:none;fill-opacity:1;stroke:#000000;stroke-width:0.132292;stroke-linecap:round;stroke-linejoin:round;stroke-dasharray:none;stroke-opacity:1;paint-order:stroke fill markers"
         id="rect23"
         width="1.5070738"
         height="0.62014145"
         x="6.8134141"
         y="2.8813646"
         ry="0.11940673" />
      <rect
         style="fill:none;fill-opacity:1;stroke:#000000;stroke-width:0.132292;stroke-linecap:round;stroke-linejoin:round;stroke-dasharray:none;stroke-opacity:1;paint-order:stroke fill markers"
         id="rect24"
         width="1.5070738"
         height="0.62014145"
         x="6.1450472"
         y="1.8771496"
         ry="0.11940673" />
      <path
         style="fill:none;stroke:#000000;stroke-width:0.132292;stroke-linecap:butt;stroke-linejoin:miter;stroke-dasharray:none;stroke-opacity:1"
         d="m 5.2434659,2.6907513 1.5699484,0.500684"
         id="path24" />
      <path
         style="fill:none;stroke:#000000;stroke-width:0.132292;stroke-linecap:butt;stroke-linejoin:miter;stroke-dasharray:none;stroke-opacity:1"
         d="M 5.5338895,1.6593705 6.6367755,1.0756466"
         id="path25" />
      <path
         style="fill:none;stroke:#000000;stroke-width:0.132292;stroke-linecap:butt;stroke-linejoin:miter;stroke-dasharray:none;stroke-opacity:1"
         d="M 6.1450474,2.1872203 5.5338895,1.6593705"
         id="path26" />
    </g>
    <g
       id="g29"
       transform="translate(-0.30311792,0.4937014)">
      <path
         style="fill:none;stroke:#000000;stroke-width:0.264583px;stroke-linecap:round;stroke-linejoin:round;stroke-opacity:1"
         d="m 3.3051658,7.3715937 c 0.1321124,0.3032524 0.129594,0.6556389 0.6301811,0.6373407 L 4.3400277,9.0809886 3.6202563,9.7763348 3.42352,10.406285 c -0.031766,0.225397 0.1967363,-0.212166 0.4556291,-0.371668 0.068503,-0.0017 0.1710208,0.05858 0.4094743,0.409361 V 9.9503124 L 4.9188045,9.4044765 c 0.1254104,-0.2036276 0.088802,-0.4188972 0,-0.6379173 L 4.6037139,7.8802179 c 0.1139442,-0.1368041 0.095815,-0.4065108 0,-0.5696463"
         id="path27"
         sodipodi:nodetypes="cccccccccccc" />
      <path
         style="fill:none;stroke:#000000;stroke-width:0.264583px;stroke-linecap:round;stroke-linejoin:round;stroke-opacity:1"
         d="m 6.2555389,7.3783734 c -0.1547505,0.2100304 -0.1291077,0.3954219 0,0.5666817 L 6.062659,8.8899038 C 5.9541758,9.279028 6.0805635,9.3355536 6.153968,9.4671083 l 0.7317523,0.523167 0.4779822,0.4922627 C 7.2608697,10.260247 7.1460879,10.030302 7.1800404,9.8956144 7.2171839,9.6536129 7.5034764,9.6873437 7.718267,9.6419437 L 7.2389964,9.4962017 6.6787009,9.0809886 6.8857203,8.0790928 C 7.1396633,7.8901622 7.2773374,7.6660771 7.10757,7.3490356"
         id="path28"
         sodipodi:nodetypes="cccccccccccc" />
      <path
         style="fill:none;stroke:#000000;stroke-width:0.264583px;stroke-linecap:round;stroke-linejoin:round;stroke-opacity:1"
         d="M 8.8526352,7.4112593 C 8.603671,7.5179379 8.5868729,7.7048478 8.7334312,7.9482097 l 0.6297544,1.0790138 v 0 L 9.0693491,9.7573637 8.5375448,9.9985645 9.2059114,10.172794 8.9844753,10.691652 9.6742633,10.018989 9.9600835,9.32259 C 10.068628,8.9751897 9.9430128,8.8202227 9.8360926,8.6479831 L 9.4000855,7.9554614 c 0.23424,-0.055934 0.2964899,-0.2320715 0.312313,-0.4996481"
         id="path29"
         sodipodi:nodetypes="ccccccccccccc" />
      <rect
         style="fill:#000000;fill-opacity:1;stroke:none;stroke-width:0.158168;stroke-linecap:round;stroke-linejoin:round;stroke-dasharray:none;stroke-opacity:1;paint-order:stroke fill markers"
         id="rect29"
         width="0.87881476"
         height="1.4510242"
         x="8.1494904"
         y="9.5621433"
         ry="0.17571035" />
    </g>
  </g>
</svg>
